<svg width="48" height="48" viewBox="0 0 48 48" fill="none" xmlns="http://www.w3.org/2000/svg">
<path d="M36 4H12C8.68 4 6 6.66 6 9.94V31.76C6 35.04 8.68 37.7 12 37.7H13.52C15.12 37.7 16.64 38.32 17.76 39.44L21.18 42.82C22.74 44.36 25.28 44.36 26.84 42.82L30.26 39.44C31.38 38.32 32.92 37.7 34.5 37.7H36C39.32 37.7 42 35.04 42 31.76V9.94C42 6.66 39.32 4 36 4ZM20.76 26.02C21.58 26.02 22.26 26.7 22.26 27.52C22.26 28.34 21.58 29.02 20.76 29.02H15.4C14.52 29.02 13.7 28.6 13.18 27.88C12.68 27.2 12.56 26.36 12.8 25.56C13.5 23.42 15.22 22.26 16.74 21.22C18.34 20.14 19.24 19.46 19.24 18.3C19.24 17.26 18.4 16.42 17.36 16.42C16.32 16.42 15.5 17.28 15.5 18.32C15.5 19.14 14.82 19.82 14 19.82C13.18 19.82 12.5 19.14 12.5 18.32C12.5 15.64 14.68 13.44 17.38 13.44C20.08 13.44 22.26 15.62 22.26 18.32C22.26 21.14 20.14 22.58 18.44 23.74C17.38 24.46 16.38 25.14 15.88 26.04H20.76V26.02ZM34 26.16H33.58V27.54C33.58 28.36 32.9 29.04 32.08 29.04C31.26 29.04 30.58 28.36 30.58 27.54V26.16H26.66C26.66 26.16 26.66 26.16 26.64 26.16C25.66 26.16 24.76 25.64 24.26 24.8C23.76 23.94 23.76 22.88 24.26 22.04C25.62 19.7 27.2 17.04 28.64 14.72C29.28 13.7 30.5 13.24 31.64 13.56C32.78 13.9 33.58 14.94 33.56 16.14V23.18H34C34.82 23.18 35.5 23.86 35.5 24.68C35.5 25.5 34.82 26.16 34 26.16Z" fill="white"/>
<path d="M30.5801 23.1598V17.2798C29.4001 19.1998 28.1801 21.2598 27.0801 23.1398H30.5801V23.1598Z" fill="white"/>
</svg>
