<svg width="77" height="24" viewBox="0 0 77 24" fill="none" xmlns="http://www.w3.org/2000/svg">
<g clip-path="url(#clip0_22_181)">
<path d="M40.5808 6.03036C40.5808 6.89531 39.8832 7.59177 39.0173 7.59177C38.1515 7.59177 37.4544 6.89531 37.4544 6.03036C37.4544 5.16542 38.1278 4.46895 39.0173 4.46895C39.9077 4.49295 40.5808 5.18966 40.5808 6.03036ZM34.1358 9.17766V9.56213C34.1358 9.56213 33.3906 8.60071 31.8033 8.60071C29.1824 8.60071 27.138 10.5948 27.138 13.3574C27.138 16.0962 29.1583 18.1141 31.8033 18.1141C33.4146 18.1141 34.1358 17.1292 34.1358 17.1292V17.5374C34.1358 17.7297 34.2804 17.8734 34.4726 17.8734H36.4202V8.84023H34.4726C34.2804 8.84095 34.1358 9.00943 34.1358 9.17766ZM34.1358 14.9671C33.7754 15.4958 33.0537 15.9522 32.1882 15.9522C30.6492 15.9522 29.4706 14.9913 29.4706 13.3574C29.4706 11.7238 30.6492 10.7628 32.1882 10.7628C33.03 10.7628 33.7994 11.2433 34.1358 11.7478V14.9671ZM37.8633 8.84095H40.1717V17.8741H37.8633V8.84095ZM72.3478 8.60047C70.7606 8.60047 70.0149 9.56189 70.0149 9.56189V4.49295H67.7065V17.8741H69.6545C69.847 17.8741 69.9909 17.7059 69.9909 17.5377V17.1294C69.9909 17.1294 70.7366 18.1144 72.3233 18.1144C74.9448 18.1144 76.9887 16.097 76.9887 13.3581C76.9887 10.6193 74.9448 8.60047 72.3478 8.60047ZM71.963 15.928C71.0729 15.928 70.3757 15.472 70.0149 14.9431V11.7238C70.3757 11.2433 71.1452 10.7388 71.963 10.7388C73.5019 10.7388 74.6803 11.6998 74.6803 13.3334C74.6803 14.9671 73.5022 15.928 71.963 15.928ZM66.5043 12.517V17.8981H64.1954V12.7809C64.1954 11.2918 63.7145 10.6908 62.4167 10.6908C61.7196 10.6908 60.9979 11.0513 60.5402 11.58V17.8744H58.2323V8.84119H60.0593C60.2517 8.84119 60.3961 9.00943 60.3961 9.17766V9.56213C61.0695 8.86519 61.9591 8.60071 62.8487 8.60071C63.8589 8.60071 64.7007 8.88943 65.374 9.46589C66.1913 10.1386 66.5043 11.0033 66.5043 12.517ZM52.6284 8.60047C51.0416 8.60047 50.2959 9.56189 50.2959 9.56189V4.49295H47.9875V17.8741H49.9351C50.1275 17.8741 50.2719 17.7059 50.2719 17.5377V17.1294C50.2719 17.1294 51.0176 18.1144 52.6043 18.1144C55.2258 18.1144 57.2697 16.097 57.2697 13.3581C57.2937 10.6191 55.2498 8.60047 52.6284 8.60047ZM52.2435 15.928C51.3539 15.928 50.6567 15.472 50.2959 14.9431V11.7238C50.6567 11.2433 51.4262 10.7388 52.2435 10.7388C53.7829 10.7388 54.961 11.6998 54.961 13.3334C54.961 14.9671 53.7829 15.928 52.2435 15.928ZM45.9914 8.60047C46.6885 8.60047 47.0494 8.72095 47.0494 8.72095V10.8588C47.0494 10.8588 45.1256 10.2101 43.9234 11.5798V17.8979H41.6145V8.84095H43.5626C43.755 8.84095 43.8989 9.00918 43.8989 9.17742V9.56189C44.3323 9.05718 45.2702 8.60047 45.9914 8.60047ZM22.0161 17.0572C21.896 16.7689 21.7757 16.4567 21.6555 16.1922C21.4629 15.76 21.2705 15.3513 21.1025 14.9671L21.0785 14.9431C19.419 11.3393 17.6398 7.68801 15.7638 4.08472L15.6917 3.94024C15.4944 3.56644 15.3021 3.19002 15.1149 2.81107C14.8742 2.37836 14.634 1.92236 14.2491 1.48965C13.4796 0.52871 12.3733 0 11.1952 0C9.99261 0 8.91059 0.528712 8.11733 1.44141C7.7565 1.87365 7.49176 2.33012 7.25153 2.76283C7.06384 3.14154 6.87156 3.51796 6.67472 3.892L6.60241 4.03648C4.75068 7.63977 2.94723 11.2913 1.28793 14.8948L1.26367 14.9426C1.0955 15.3275 0.902831 15.7358 0.710402 16.1678C0.590285 16.4322 0.470167 16.7205 0.35005 17.0327C0.0372634 17.9214 -0.0590756 18.7623 0.0615225 19.6275C0.326021 21.4294 1.52816 22.9423 3.1877 23.6155C3.81304 23.88 4.46239 24 5.13553 24C5.32796 24 5.5682 23.976 5.76087 23.9518C6.55461 23.8558 7.37212 23.5918 8.16586 23.1353C9.15179 22.5826 10.0897 21.7901 11.1477 20.6369C12.2057 21.7901 13.1676 22.5826 14.1295 23.1353C14.9234 23.5918 15.7407 23.8558 16.5342 23.9518C16.7266 23.9762 16.9674 24 17.1598 24C17.8332 24 18.5063 23.88 19.1074 23.6155C20.7909 22.9423 21.9691 21.4054 22.2338 19.6275C22.4248 18.7868 22.3287 17.9464 22.0161 17.0572ZM11.171 18.3064C9.87225 16.6727 9.03046 15.1353 8.74218 13.8384C8.62206 13.2857 8.5978 12.8052 8.67011 12.3727C8.71792 11.9882 8.86254 11.6518 9.05497 11.3635C9.5119 10.7153 10.2814 10.3066 11.1712 10.3066C12.0613 10.3066 12.8548 10.6911 13.2877 11.3635C13.4801 11.6518 13.6242 11.9885 13.6728 12.3727C13.7446 12.8054 13.7206 13.3097 13.6005 13.8384C13.311 15.1113 12.4692 16.6489 11.171 18.3064ZM20.7655 19.4355C20.5973 20.6847 19.7555 21.7661 18.5774 22.2466C18.0004 22.4866 17.3748 22.5588 16.7499 22.4866C16.1489 22.4143 15.5473 22.2221 14.9225 21.8621C14.0567 21.3812 13.1911 20.6369 12.1809 19.5315C13.7679 17.5859 14.7298 15.8078 15.0906 14.2226C15.259 13.4777 15.2833 12.8052 15.2108 12.1802C15.1149 11.5798 14.8982 11.0271 14.5616 10.5466C13.8157 9.46517 12.565 8.84095 11.1707 8.84095C9.7764 8.84095 8.52573 9.48965 7.78028 10.5466C7.44371 11.0271 7.22702 11.5798 7.13092 12.1802C7.03483 12.8052 7.05861 13.5017 7.25104 14.2226C7.61163 15.8078 8.59757 17.6097 10.1605 19.5555C9.17461 20.6607 8.28477 21.4057 7.41897 21.8861C6.79363 22.2466 6.19281 22.4388 5.59174 22.5106C4.94263 22.5828 4.31705 22.4866 3.76403 22.2706C2.58592 21.7901 1.74413 20.7087 1.57597 19.4595C1.5039 18.8591 1.55171 18.2586 1.79242 17.5859C1.86425 17.3454 1.98485 17.1054 2.10497 16.8172C2.27337 16.4327 2.46532 16.024 2.65799 15.6158L2.68225 15.568C4.34132 11.9882 6.12074 8.33671 7.97247 4.78142L8.04454 4.63695C8.23721 4.27696 8.42964 3.89248 8.62183 3.53201C8.81426 3.14754 9.03047 2.78707 9.2952 2.47459C9.80018 1.8986 10.4733 1.58589 11.219 1.58589C11.9647 1.58589 12.6378 1.8986 13.1428 2.47459C13.4076 2.78779 13.6238 3.14826 13.8162 3.53201C14.0089 3.89248 14.2013 4.27696 14.3932 4.63695L14.4655 4.78142C16.289 8.35149 18.0448 11.9557 19.732 15.592V15.616C19.9247 16.001 20.0928 16.433 20.2852 16.8179C20.4054 17.1057 20.5257 17.3457 20.5978 17.5861C20.7897 18.2101 20.8618 18.8111 20.7655 19.4355Z" fill="#AEAEC4"/>
</g>
<defs>
<clipPath id="clip0_22_181">
<rect width="77" height="24" fill="white"/>
</clipPath>
</defs>
</svg>
