<svg width="32" height="32" viewBox="0 0 32 32" fill="none" xmlns="http://www.w3.org/2000/svg">
<path d="M16.0001 2.6665C8.65341 2.6665 2.66675 8.65317 2.66675 15.9998C2.66675 23.3465 8.65341 29.3332 16.0001 29.3332C23.3467 29.3332 29.3334 23.3465 29.3334 15.9998C29.3334 8.65317 23.3467 2.6665 16.0001 2.6665ZM19.7201 16.7065L15.0134 21.4132C14.8134 21.6132 14.5601 21.7065 14.3067 21.7065C14.0534 21.7065 13.8001 21.6132 13.6001 21.4132C13.2134 21.0265 13.2134 20.3865 13.6001 19.9998L17.6001 15.9998L13.6001 11.9998C13.2134 11.6132 13.2134 10.9732 13.6001 10.5865C13.9867 10.1998 14.6267 10.1998 15.0134 10.5865L19.7201 15.2932C20.1201 15.6798 20.1201 16.3198 19.7201 16.7065Z" fill="#4864E1"/>
</svg>
