<svg width="16" height="16" viewBox="0 0 16 16" fill="none" xmlns="http://www.w3.org/2000/svg">
<path d="M10.6667 15.1668H5.33332C2.25332 15.1668 1.67999 13.7335 1.53332 12.3402L1.03332 7.00017C0.959989 6.30017 0.939989 5.26684 1.63332 4.4935C2.23332 3.82684 3.22666 3.50684 4.66666 3.50684H11.3333C12.78 3.50684 13.7733 3.8335 14.3667 4.4935C15.06 5.26684 15.04 6.30017 14.9667 7.00684L14.4667 12.3335C14.32 13.7335 13.7467 15.1668 10.6667 15.1668ZM4.66666 4.50017C3.53999 4.50017 2.76666 4.72017 2.37332 5.16017C2.04666 5.52017 1.93999 6.0735 2.02666 6.90017L2.52666 12.2402C2.63999 13.2935 2.92666 14.1668 5.33332 14.1668H10.6667C13.0667 14.1668 13.36 13.2935 13.4733 12.2335L13.9733 6.90684C14.06 6.0735 13.9533 5.52017 13.6267 5.16017C13.2333 4.72017 12.46 4.50017 11.3333 4.50017H4.66666Z" fill="#4864E1"/>
<path d="M10.6668 4.50016C10.3935 4.50016 10.1668 4.2735 10.1668 4.00016V3.46683C10.1668 2.28016 10.1668 1.8335 8.5335 1.8335H7.46683C5.8335 1.8335 5.8335 2.28016 5.8335 3.46683V4.00016C5.8335 4.2735 5.60683 4.50016 5.3335 4.50016C5.06016 4.50016 4.8335 4.2735 4.8335 4.00016V3.46683C4.8335 2.2935 4.8335 0.833496 7.46683 0.833496H8.5335C11.1668 0.833496 11.1668 2.2935 11.1668 3.46683V4.00016C11.1668 4.2735 10.9402 4.50016 10.6668 4.50016Z" fill="#4864E1"/>
<path d="M7.99984 11.1667C6.1665 11.1667 6.1665 10.0333 6.1665 9.35333V8.66667C6.1665 7.72667 6.39317 7.5 7.33317 7.5H8.6665C9.6065 7.5 9.83317 7.72667 9.83317 8.66667V9.33333C9.83317 10.0267 9.83317 11.1667 7.99984 11.1667ZM7.1665 8.5C7.1665 8.55333 7.1665 8.61333 7.1665 8.66667V9.35333C7.1665 10.04 7.1665 10.1667 7.99984 10.1667C8.83317 10.1667 8.83317 10.06 8.83317 9.34667V8.66667C8.83317 8.61333 8.83317 8.55333 8.83317 8.5C8.77984 8.5 8.71984 8.5 8.6665 8.5H7.33317C7.27984 8.5 7.21984 8.5 7.1665 8.5Z" fill="#4864E1"/>
<path d="M9.3335 9.8465C9.08683 9.8465 8.86683 9.65983 8.84016 9.4065C8.80683 9.13317 9.00016 8.87983 9.2735 8.8465C11.0335 8.6265 12.7202 7.95983 14.1402 6.9265C14.3602 6.75983 14.6735 6.81317 14.8402 7.03983C15.0002 7.25983 14.9535 7.57317 14.7268 7.73983C13.1668 8.87317 11.3268 9.59983 9.3935 9.8465C9.3735 9.8465 9.3535 9.8465 9.3335 9.8465Z" fill="#4864E1"/>
<path d="M6.66666 9.85343C6.64666 9.85343 6.62666 9.85343 6.60666 9.85343C4.77999 9.64676 2.99999 8.9801 1.45999 7.92676C1.23333 7.77343 1.17333 7.4601 1.32666 7.23343C1.47999 7.00676 1.79333 6.94676 2.01999 7.1001C3.42666 8.0601 5.04666 8.66676 6.71333 8.8601C6.98666 8.89343 7.18666 9.1401 7.15333 9.41343C7.13333 9.66676 6.91999 9.85343 6.66666 9.85343Z" fill="#4864E1"/>
</svg>
