<svg width="48" height="48" viewBox="0 0 48 48" fill="none" xmlns="http://www.w3.org/2000/svg">
<path d="M43.8402 33.5002C43.1802 38.8202 38.8202 43.1802 33.5002 43.8402C30.2802 44.2402 27.2802 43.3602 24.9402 41.6402C23.6002 40.6602 23.9202 38.5802 25.5202 38.1002C31.5402 36.2802 36.2802 31.5202 38.1202 25.5002C38.6002 23.9202 40.6802 23.6002 41.6602 24.9202C43.3602 27.2802 44.2402 30.2802 43.8402 33.5002Z" fill="white"/>
<path d="M19.98 4C11.16 4 4 11.16 4 19.98C4 28.8 11.16 35.96 19.98 35.96C28.8 35.96 35.96 28.8 35.96 19.98C35.94 11.16 28.8 4 19.98 4ZM18.1 17.74L22.92 19.42C24.66 20.04 25.5 21.26 25.5 23.14C25.5 25.3 23.78 27.08 21.68 27.08H21.5V27.18C21.5 28 20.82 28.68 20 28.68C19.18 28.68 18.5 28 18.5 27.18V27.06C16.28 26.96 14.5 25.1 14.5 22.78C14.5 21.96 15.18 21.28 16 21.28C16.82 21.28 17.5 21.96 17.5 22.78C17.5 23.5 18.02 24.08 18.66 24.08H21.66C22.12 24.08 22.48 23.66 22.48 23.14C22.48 22.44 22.36 22.4 21.9 22.24L17.08 20.56C15.36 19.96 14.5 18.74 14.5 16.84C14.5 14.68 16.22 12.9 18.32 12.9H18.5V12.82C18.5 12 19.18 11.32 20 11.32C20.82 11.32 21.5 12 21.5 12.82V12.94C23.72 13.04 25.5 14.9 25.5 17.22C25.5 18.04 24.82 18.72 24 18.72C23.18 18.72 22.5 18.04 22.5 17.22C22.5 16.5 21.98 15.92 21.34 15.92H18.34C17.88 15.92 17.52 16.34 17.52 16.86C17.5 17.54 17.62 17.58 18.1 17.74Z" fill="white"/>
</svg>
