<svg width="69" height="24" viewBox="0 0 69 24" fill="none" xmlns="http://www.w3.org/2000/svg">
<g clip-path="url(#clip0_22_173)">
<path d="M10.6699 11.6622H13.6372V15.891C12.7113 16.1928 11.5423 16.3584 10.3271 16.3584C5.40216 16.3584 2.50759 12.0791 2.50759 7.89984C2.50759 3.80088 5.12579 0.9257 8.7785 0.9257C11.0899 0.9257 12.4348 1.72022 13.638 2.82696V4.20665L15.8941 1.91745C14.4671 0.937839 12.4008 0.00683594 9.4473 0.00683594C2.96361 0.00683594 0 4.71338 0 8.58127C0 14.0868 3.95213 17.4034 8.91862 17.4034C11.3267 17.4034 13.4649 17.0305 15.9348 16.3331V11.9641C15.9348 11.7407 16.0315 11.5874 16.1761 11.4528L16.9555 10.662H11.663L10.6699 11.6622Z" fill="#AEAEC4"/>
<path d="M23.9627 5.91553C20.2308 5.91553 17.9185 8.68247 17.9185 11.6195C17.9185 14.1545 19.7813 17.1643 23.5555 17.1643C27.1861 17.1643 29.4137 14.3919 29.4137 11.4035C29.4137 8.61986 27.2368 5.91655 23.9627 5.91655V5.91553ZM23.3435 6.72223C25.9747 6.72223 27.1464 10.2004 27.1464 12.6812C27.1464 16.3707 24.4186 16.4436 24.0925 16.4436C22.8442 16.4436 21.9718 15.6781 21.3187 14.6741C20.7439 13.7488 20.1819 12.0297 20.1819 10.35C20.1819 8.67679 20.7217 7.85981 21.5712 7.25877C22.2658 6.80822 22.9162 6.72223 23.3426 6.72223H23.3435Z" fill="#AEAEC4"/>
<path d="M48.3578 5.91455C45.0984 5.91455 43.3351 8.0084 43.3351 10.3462C43.3351 12.126 44.5917 14.1338 47.1841 14.1338H47.8399C47.8399 14.1338 47.6613 14.5741 47.6604 14.9994C47.6604 15.6267 47.8824 15.979 48.354 16.5211C43.8933 16.7969 42.1006 18.6225 42.1006 20.5845C42.1006 22.3027 43.722 23.9936 47.1296 23.9936C51.1637 23.9936 53.2531 21.7211 53.2531 19.4909C53.2531 17.9187 52.4811 17.0568 50.5262 15.5706C49.9514 15.1172 49.8399 14.8285 49.8399 14.4892C49.8399 14.0031 50.1264 13.6815 50.2314 13.56C50.4166 13.3619 50.7372 13.1357 50.857 13.0272C51.5138 12.4626 52.4415 11.6271 52.4415 9.95939C52.4415 8.81526 51.9725 7.83098 50.9039 6.90932H52.2084L53.1886 5.91476H48.3578V5.91455ZM47.4587 6.65861C48.0502 6.65861 48.5438 6.87081 49.0653 7.31108C49.6437 7.84015 50.5679 9.26189 50.5679 11.0211C50.5679 12.9196 49.1142 13.4393 48.3274 13.4393C47.9423 13.4393 47.4809 13.3299 47.0902 13.0588C46.2224 12.4878 45.361 10.9678 45.361 9.15906C45.361 7.52699 46.319 6.65861 47.4587 6.65861ZM48.7494 17.2418C48.998 17.2418 49.1768 17.2625 49.1768 17.2625C49.1768 17.2625 49.7636 17.6878 50.1736 18.0055C51.128 18.7711 51.723 19.3562 51.723 20.3986C51.723 21.8315 50.413 22.9551 48.2914 22.9551C45.9626 22.9551 44.1827 21.8549 44.1827 20.0584C44.1827 18.5702 45.4024 17.2894 48.7494 17.2418Z" fill="#AEAEC4"/>
<path d="M53.8944 16.8361H58.3688L59.0505 16.1445L57.7672 15.9818C57.4217 15.9388 57.2164 15.636 57.2164 15.3424V1.62876C57.2164 1.35862 57.3398 1.22028 57.43 1.13232L58.2371 0.313477H54.4213L53.4282 1.32114H54.9114V15.5265C54.9114 15.7284 54.8488 15.8658 54.7143 16.0069L53.8944 16.8361Z" fill="#AEAEC4"/>
<path d="M64.4318 5.91553C61.9334 5.91553 59.2793 7.84765 59.2793 11.3165C59.2793 14.1814 61.1835 17.1643 64.7413 17.1643C65.6285 17.1643 66.359 17.0485 67.0435 16.7297C67.7777 16.3867 68.4843 15.8296 69.0001 15.1294C68.0265 15.6277 67.2324 15.9548 66.1774 15.9548C64.1728 15.9548 62.2401 14.4873 61.5639 11.7896L68.6455 8.88531C68.2364 7.40561 67.083 5.91553 64.4327 5.91553H64.4318ZM63.9692 6.70913C65.3097 6.70913 66.2788 7.82803 66.2788 8.70389C66.2788 8.98712 66.1038 9.13668 65.7574 9.27503L61.4045 11.0613C61.4045 11.0613 61.2867 10.5052 61.2867 9.90411C61.2867 7.3831 63.0831 6.70913 63.9692 6.70913Z" fill="#AEAEC4"/>
<path d="M36.6258 5.91553C32.8938 5.91553 30.5815 8.68247 30.5815 11.6195C30.5815 14.1545 32.4444 17.1643 36.2186 17.1643C39.8492 17.1643 42.0768 14.3919 42.0768 11.4035C42.0768 8.61986 39.8999 5.91655 36.6258 5.91655V5.91553ZM36.0067 6.72223C38.6378 6.72223 39.8095 10.2004 39.8095 12.6812C39.8095 16.3707 37.0817 16.4436 36.7556 16.4436C35.5073 16.4436 34.6349 15.6781 33.9819 14.6741C33.407 13.7488 32.845 12.0297 32.845 10.35C32.845 8.67679 33.3848 7.85981 34.2343 7.25877C34.9289 6.80822 35.5793 6.72223 36.0057 6.72223H36.0067Z" fill="#AEAEC4"/>
</g>
<defs>
<clipPath id="clip0_22_173">
<rect width="69" height="24" fill="white"/>
</clipPath>
</defs>
</svg>
