<svg width="115" height="40" viewBox="0 0 115 40" fill="none" xmlns="http://www.w3.org/2000/svg">
<path d="M35.1502 11.6333C33.7336 10.0666 31.3669 9.28328 27.9336 9.28328H27.5336V9.21662C27.5336 6.41662 27.5336 2.94995 21.2669 2.94995H18.7336C12.4669 2.94995 12.4669 6.43328 12.4669 9.21662V9.29995H12.0669C8.61689 9.29995 6.26689 10.0833 4.85023 11.65C3.20023 13.4833 3.25023 15.95 3.41689 17.6333L3.43356 17.7499L3.60023 19.5C3.61689 19.5166 3.65023 19.5499 3.68356 19.5666C4.23356 19.9333 4.80023 20.3 5.40023 20.6333C5.63356 20.7833 5.88356 20.9166 6.13356 21.05C8.98356 22.6166 12.1169 23.6666 15.3002 24.1833C15.4502 25.75 16.1336 27.5833 19.7836 27.5833C23.4336 27.5833 24.1502 25.7666 24.2669 24.15C27.6669 23.5999 30.9502 22.4166 33.9169 20.6833C34.0169 20.6333 34.0836 20.5833 34.1669 20.5333C34.9336 20.0999 35.6502 19.6333 36.3502 19.1166C36.3836 19.1 36.4169 19.0666 36.4336 19.0333L36.5002 18.4333L36.5836 17.65C36.6002 17.55 36.6002 17.4666 36.6169 17.3499C36.7502 15.6666 36.7169 13.3666 35.1502 11.6333ZM21.8169 23.0499C21.8169 24.8166 21.8169 25.0833 19.7669 25.0833C17.7169 25.0833 17.7169 24.7666 17.7169 23.0666V20.9666H21.8169V23.0499ZM14.8502 9.28328V9.21662C14.8502 6.38328 14.8502 5.33328 18.7336 5.33328H21.2669C25.1502 5.33328 25.1502 6.39995 25.1502 9.21662V9.29995H14.8502V9.28328Z" fill="#4864E1"/>
<path opacity="0.4" d="M34.1668 20.5C34.0834 20.55 34.0001 20.6 33.9168 20.65C30.9501 22.3833 27.6668 23.55 24.2668 24.1167C24.1334 25.7167 23.4334 27.55 19.7834 27.55C16.1334 27.55 15.4334 25.7333 15.3001 24.15C12.1168 23.65 8.98343 22.6 6.13343 21.0167C5.88343 20.8833 5.63343 20.75 5.4001 20.6C4.8001 20.2667 4.23343 19.9 3.68343 19.5333C3.6501 19.5167 3.61676 19.4833 3.6001 19.4667L4.61676 30.3167C4.96676 33.6333 6.33343 37.05 13.6668 37.05H26.3668C33.7001 37.05 35.0668 33.6333 35.4168 30.3L36.4668 19C36.4501 19.0333 36.4168 19.0667 36.3834 19.0833C35.6668 19.6 34.9334 20.0833 34.1668 20.5Z" fill="#4864E1"/>
<path d="M61.008 29H64.584V11.768H61.224V23.192L53.712 11.768H49.776V29H53.112V16.976L61.008 29ZM74.8476 33.872C78.6396 33.872 80.9436 31.808 80.9436 28.4V16.184H77.8956V17.936C76.9596 16.616 75.6636 15.944 73.9356 15.944C70.7676 15.944 68.5596 18.512 68.5596 22.232C68.5596 25.856 70.9116 28.52 74.0556 28.52C75.6156 28.52 76.9356 27.8 77.6316 26.576V28.448C77.6316 30.296 76.6716 31.28 74.8236 31.28C73.2396 31.28 72.3036 30.512 72.1596 29.048H68.9436C69.0876 32 71.3916 33.872 74.8476 33.872ZM71.8956 22.232C71.8956 20.144 72.9996 18.824 74.7036 18.824C76.4556 18.824 77.6076 20.168 77.6076 22.256C77.6076 24.272 76.4556 25.64 74.7036 25.64C72.9756 25.64 71.8956 24.32 71.8956 22.232ZM93.3142 23.6C93.3142 25.328 92.1622 26.288 90.9622 26.288C89.6182 26.288 88.7302 25.496 88.7302 23.696V16.184H85.3942V24.344C85.3942 27.68 87.2662 29.24 89.8342 29.24C91.4662 29.24 92.8822 28.448 93.5782 27.32V29H96.6262V16.184H93.3142V23.6ZM104.544 29V11.768H101.184V29H104.544ZM112.287 23.816L113.151 11.768H108.927L109.767 23.816H112.287ZM113.343 26.936C113.343 25.664 112.383 24.728 111.039 24.728C109.695 24.728 108.735 25.664 108.735 26.936C108.735 28.208 109.719 29.12 111.039 29.12C112.359 29.12 113.343 28.208 113.343 26.936Z" fill="white"/>
</svg>
