<svg width="96" height="32" viewBox="0 0 96 32" fill="none" xmlns="http://www.w3.org/2000/svg">
<path d="M28.1199 9.30653C26.9866 8.0532 25.0932 7.42653 22.3466 7.42653H22.0266V7.3732C22.0266 5.1332 22.0266 2.35986 17.0132 2.35986H14.9866C9.97322 2.35986 9.97322 5.14653 9.97322 7.3732V7.43986H9.65322C6.89322 7.43986 5.01322 8.06653 3.87989 9.31986C2.55989 10.7865 2.59989 12.7599 2.73322 14.1065L2.74655 14.1999L2.87989 15.5999C2.89322 15.6132 2.91989 15.6399 2.94655 15.6532C3.38655 15.9465 3.83989 16.2399 4.31989 16.5065C4.50655 16.6265 4.70655 16.7332 4.90655 16.8399C7.18655 18.0932 9.69322 18.9332 12.2399 19.3465C12.3599 20.5999 12.9066 22.0665 15.8266 22.0665C18.7466 22.0665 19.3199 20.6132 19.4132 19.3199C22.1332 18.8799 24.7599 17.9332 27.1332 16.5465C27.2132 16.5065 27.2666 16.4665 27.3332 16.4265C27.9466 16.0799 28.5199 15.7065 29.0799 15.2932C29.1066 15.2799 29.1332 15.2532 29.1466 15.2265L29.1999 14.7465L29.2666 14.1199C29.2799 14.0399 29.2799 13.9732 29.2932 13.8799C29.3999 12.5332 29.3732 10.6932 28.1199 9.30653ZM17.4532 18.4399C17.4532 19.8532 17.4532 20.0665 15.8132 20.0665C14.1732 20.0665 14.1732 19.8132 14.1732 18.4532V16.7732H17.4532V18.4399ZM11.8799 7.42653V7.3732C11.8799 5.10653 11.8799 4.26653 14.9866 4.26653H17.0132C20.1199 4.26653 20.1199 5.11986 20.1199 7.3732V7.43986H11.8799V7.42653Z" fill="#4864E1"/>
<path opacity="0.4" d="M27.3332 16.4002C27.2665 16.4402 27.1999 16.4802 27.1332 16.5202C24.7599 17.9069 22.1332 18.8402 19.4132 19.2935C19.3065 20.5735 18.7465 22.0402 15.8265 22.0402C12.9065 22.0402 12.3465 20.5869 12.2399 19.3202C9.69322 18.9202 7.18655 18.0802 4.90655 16.8135C4.70655 16.7069 4.50655 16.6002 4.31988 16.4802C3.83988 16.2135 3.38655 15.9202 2.94655 15.6269C2.91988 15.6135 2.89322 15.5869 2.87988 15.5735L3.69322 24.2535C3.97322 26.9069 5.06655 29.6402 10.9332 29.6402H21.0932C26.9599 29.6402 28.0532 26.9069 28.3332 24.2402L29.1732 15.2002C29.1599 15.2269 29.1332 15.2535 29.1065 15.2669C28.5332 15.6802 27.9465 16.0669 27.3332 16.4002Z" fill="#4864E1"/>
<path d="M50.84 24H53.82V9.64H51.02V19.16L44.76 9.64H41.48V24H44.26V13.98L50.84 24ZM62.373 28.06C65.533 28.06 67.453 26.34 67.453 23.5V13.32H64.913V14.78C64.133 13.68 63.053 13.12 61.613 13.12C58.973 13.12 57.133 15.26 57.133 18.36C57.133 21.38 59.093 23.6 61.713 23.6C63.013 23.6 64.113 23 64.693 21.98V23.54C64.693 25.08 63.893 25.9 62.353 25.9C61.033 25.9 60.253 25.26 60.133 24.04H57.453C57.573 26.5 59.493 28.06 62.373 28.06ZM59.913 18.36C59.913 16.62 60.833 15.52 62.253 15.52C63.713 15.52 64.673 16.64 64.673 18.38C64.673 20.06 63.713 21.2 62.253 21.2C60.813 21.2 59.913 20.1 59.913 18.36ZM77.7619 19.5C77.7619 20.94 76.8019 21.74 75.8019 21.74C74.6819 21.74 73.9419 21.08 73.9419 19.58V13.32H71.1619V20.12C71.1619 22.9 72.7219 24.2 74.8619 24.2C76.2219 24.2 77.4019 23.54 77.9819 22.6V24H80.5219V13.32H77.7619V19.5ZM87.1197 24V9.64H84.3197V24H87.1197ZM93.5727 19.68L94.2927 9.64H90.7727L91.4727 19.68H93.5727ZM94.4527 22.28C94.4527 21.22 93.6527 20.44 92.5327 20.44C91.4127 20.44 90.6127 21.22 90.6127 22.28C90.6127 23.34 91.4327 24.1 92.5327 24.1C93.6327 24.1 94.4527 23.34 94.4527 22.28Z" fill="#021638"/>
</svg>
