<svg width="113" height="24" viewBox="0 0 113 24" fill="none" xmlns="http://www.w3.org/2000/svg">
<g clip-path="url(#clip0_22_183)">
<path d="M113 10.8578V8.88181H110.532V5.80986L110.449 5.83529L108.131 6.54048L108.086 6.55429V8.88192H104.427V7.58523C104.427 6.98145 104.563 6.5194 104.83 6.21126C105.096 5.90681 105.476 5.75203 105.961 5.75203C106.309 5.75203 106.67 5.83366 107.033 5.99463L107.124 6.03507V3.95406L107.082 3.93841C106.743 3.81732 106.282 3.75635 105.711 3.75635C104.991 3.75635 104.337 3.9121 103.767 4.22079C103.196 4.52991 102.747 4.97119 102.433 5.53226C102.119 6.09267 101.96 6.73993 101.96 7.45621V8.88181H100.242V10.8578H101.96V19.1824H104.427V10.8578H108.086V16.148C108.086 18.3267 109.119 19.4308 111.157 19.4308C111.492 19.4308 111.845 19.3917 112.205 19.3153C112.571 19.2369 112.821 19.1585 112.968 19.0748L113 19.0557V17.0614L112.9 17.1274C112.766 17.2161 112.599 17.2886 112.404 17.3425C112.207 17.3974 112.043 17.4249 111.916 17.4249C111.439 17.4249 111.086 17.2969 110.866 17.0444C110.645 16.7897 110.532 16.3441 110.532 15.7209V10.8578H113ZM94.7329 17.4252C93.8376 17.4252 93.1316 17.13 92.6342 16.5485C92.1336 15.964 91.88 15.1308 91.88 14.0722C91.88 12.9799 92.1336 12.1251 92.6344 11.5303C93.1322 10.9395 93.8313 10.6396 94.7128 10.6396C95.5682 10.6396 96.2491 10.926 96.7368 11.4913C97.227 12.0595 97.4758 12.9075 97.4758 14.0125C97.4758 15.131 97.2418 15.9902 96.7805 16.565C96.3224 17.1354 95.6335 17.4252 94.7329 17.4252ZM94.8426 8.63367C93.1344 8.63367 91.7776 9.13137 90.8102 10.113C89.8434 11.0947 89.3533 12.4532 89.3533 14.1512C89.3533 15.7639 89.8317 17.0612 90.7755 18.0063C91.7193 18.9517 93.0037 19.4306 94.5928 19.4306C96.2486 19.4306 97.5784 18.9259 98.5454 17.9307C99.5122 16.9366 100.002 15.5909 100.002 13.9326C100.002 12.2946 99.5424 10.9877 98.6354 10.0489C97.7281 9.10974 96.4517 8.63367 94.8426 8.63367ZM85.376 8.63367C84.214 8.63367 83.2528 8.9292 82.5186 9.5119C81.7799 10.0981 81.4052 10.8668 81.4052 11.7971C81.4052 12.2807 81.486 12.7103 81.6452 13.0746C81.8053 13.4401 82.0532 13.762 82.3824 14.0321C82.7091 14.3 83.2135 14.5806 83.8818 14.8662C84.4437 15.096 84.8627 15.2905 85.1288 15.4437C85.389 15.594 85.5736 15.7449 85.6779 15.892C85.7792 16.0359 85.8306 16.2328 85.8306 16.4759C85.8306 17.1679 85.3094 17.5046 84.237 17.5046C83.8392 17.5046 83.3854 17.422 82.8884 17.2592C82.3949 17.0989 81.9291 16.864 81.5074 16.5629L81.4049 16.4899V18.8514L81.4425 18.8688C81.7916 19.029 82.2317 19.1641 82.7503 19.2704C83.268 19.3769 83.7384 19.431 84.147 19.431C85.4079 19.431 86.4233 19.134 87.1642 18.5479C87.9098 17.9577 88.2877 17.1707 88.2877 16.2083C88.2877 15.514 88.0843 14.9185 87.6833 14.4383C87.2851 13.9621 86.5939 13.5248 85.6299 13.1383C84.8619 12.8318 84.3699 12.5773 84.1669 12.382C83.9712 12.1933 83.8719 11.9265 83.8719 11.5886C83.8719 11.289 83.9945 11.049 84.2463 10.8547C84.5 10.6594 84.8532 10.56 85.2961 10.56C85.7071 10.56 86.1276 10.6246 86.5458 10.7511C86.9637 10.8776 87.3308 11.0471 87.6372 11.2543L87.738 11.3228V9.08267L87.6993 9.06615C87.4166 8.94561 87.0439 8.84246 86.5911 8.75877C86.1404 8.67562 85.7316 8.63367 85.376 8.63367ZM74.9743 17.4252C74.0791 17.4252 73.373 17.13 72.8756 16.5485C72.375 15.964 72.1218 15.131 72.1218 14.0722C72.1218 12.9799 72.3753 12.1251 72.8762 11.5303C73.3735 10.9395 74.0726 10.6396 74.9545 10.6396C75.8095 10.6396 76.4904 10.926 76.9783 11.4913C77.4685 12.0595 77.7172 12.9075 77.7172 14.0125C77.7172 15.131 77.4832 15.9902 77.0219 16.565C76.5638 17.1354 75.8752 17.4252 74.9743 17.4252ZM75.0842 8.63367C73.3756 8.63367 72.0187 9.13137 71.0519 10.113C70.0851 11.0947 69.5946 12.4532 69.5946 14.1512C69.5946 15.7646 70.0734 17.0612 71.0172 18.0063C71.961 18.9517 73.2453 19.4306 74.8344 19.4306C76.49 19.4306 77.8201 18.9259 78.787 17.9307C79.7537 16.9366 80.2437 15.5909 80.2437 13.9326C80.2437 12.2946 79.784 10.9877 78.8768 10.0489C77.9692 9.10974 76.6931 8.63367 75.0842 8.63367ZM65.8501 10.6657V8.88181H63.4133V19.1822H65.8501V13.9131C65.8501 13.0172 66.0544 12.2811 66.4575 11.7252C66.8555 11.1759 67.3859 10.8975 68.0334 10.8975C68.2529 10.8975 68.4993 10.9335 68.7662 11.0047C69.0303 11.0754 69.2215 11.1523 69.3344 11.2331L69.4368 11.3069V8.8642L69.3973 8.84736C69.1704 8.75149 68.8493 8.70312 68.4431 8.70312C67.8308 8.70312 67.2828 8.89877 66.8134 9.28397C66.4014 9.62254 66.1037 10.0868 65.876 10.6657H65.8501ZM59.0495 8.63367C57.9316 8.63367 56.9344 8.87203 56.0863 9.3419C55.2364 9.81286 54.5791 10.4852 54.1319 11.3402C53.6867 12.1931 53.4606 13.1894 53.4606 14.3004C53.4606 15.2736 53.6798 16.1668 54.113 16.9539C54.5464 17.7424 55.1599 18.3592 55.9364 18.787C56.7119 19.2143 57.6081 19.4309 58.6004 19.4309C59.7585 19.4309 60.7472 19.2007 61.5399 18.7467L61.572 18.7284V16.5086L61.4695 16.5829C61.1104 16.843 60.7092 17.0506 60.2774 17.2002C59.8467 17.3496 59.4541 17.4252 59.1097 17.4252C58.1536 17.4252 57.386 17.1277 56.8288 16.5412C56.2705 15.9539 55.9874 15.1293 55.9874 14.0916C55.9874 13.0474 56.2826 12.2016 56.8645 11.5775C57.4446 10.9552 58.2136 10.6396 59.1499 10.6396C59.9509 10.6396 60.7313 10.9092 61.4697 11.4418L61.572 11.5156V9.17669L61.5389 9.15821C61.2611 9.00354 60.8821 8.87583 60.4116 8.77899C59.9431 8.68236 59.4849 8.63367 59.0495 8.63367ZM51.7824 8.88192H49.3456V19.1822H51.7824V8.88192ZM50.5889 4.49393C50.1878 4.49393 49.8381 4.62969 49.5507 4.8987C49.2621 5.16847 49.1157 5.50813 49.1157 5.90899C49.1157 6.30354 49.2603 6.637 49.5462 6.8996C49.8302 7.16144 50.1811 7.29415 50.589 7.29415C50.9969 7.29415 51.3491 7.16144 51.6364 6.90004C51.9257 6.637 52.0724 6.30364 52.0724 5.90899C52.0724 5.52215 51.9296 5.18597 51.6484 4.90957C51.3673 4.63371 51.0107 4.49393 50.5889 4.49393ZM44.509 8.12195V19.1822H46.9959V4.80924H43.554L39.1791 15.485L34.9336 4.80924H31.3516V19.1821H33.6885V8.12086H33.7688L38.2519 19.1822H40.0156L44.4288 8.12195H44.509Z" fill="#AEAEC4"/>
<path d="M11.4632 11.4046H0V0.00634766H11.4632V11.4046Z" fill="#AEAEC4"/>
<path d="M24.1198 11.4046H12.6567V0.00634766H24.1198V11.4046Z" fill="#AEAEC4"/>
<path d="M11.4629 23.9939H0V12.5957H11.4629V23.9939Z" fill="#AEAEC4"/>
<path d="M24.1198 23.9939H12.6567V12.5957H24.1198V23.9939Z" fill="#AEAEC4"/>
</g>
<defs>
<clipPath id="clip0_22_183">
<rect width="113" height="24" fill="white"/>
</clipPath>
</defs>
</svg>
