<svg width="32" height="32" viewBox="0 0 32 32" fill="none" xmlns="http://www.w3.org/2000/svg">
<path d="M10.7867 15.5068H4.53341C4.64008 9.28012 5.86675 8.25346 9.69341 5.98679C10.1334 5.72012 10.2801 5.16012 10.0134 4.70679C9.76008 4.26679 9.18675 4.12012 8.74675 4.38679C4.24008 7.05346 2.66675 8.68012 2.66675 16.4268V23.6135C2.66675 25.8935 4.52008 27.7335 6.78675 27.7335H10.7867C13.1334 27.7335 14.9067 25.9601 14.9067 23.6135V19.6135C14.9067 17.2801 13.1334 15.5068 10.7867 15.5068Z" fill="#BDC7F4"/>
<path d="M25.2134 15.5068H18.9601C19.0667 9.28012 20.2934 8.25346 24.1201 5.98679C24.5601 5.72012 24.7067 5.16012 24.4401 4.70679C24.1734 4.26679 23.6134 4.12012 23.1601 4.38679C18.6534 7.05346 17.0801 8.68012 17.0801 16.4401V23.6268C17.0801 25.9068 18.9334 27.7468 21.2001 27.7468H25.2001C27.5467 27.7468 29.3201 25.9735 29.3201 23.6268V19.6268C29.3334 17.2801 27.5601 15.5068 25.2134 15.5068Z" fill="#BDC7F4"/>
</svg>
