<svg width="48" height="48" viewBox="0 0 48 48" fill="none" xmlns="http://www.w3.org/2000/svg">
<path d="M30.7799 10.4201L33.5999 16.0601C33.9799 16.8401 34.9999 17.5801 35.8599 17.7401L40.9599 18.5801C44.2199 19.1201 44.9799 21.4801 42.6399 23.8401L38.6599 27.8201C37.9999 28.4801 37.6199 29.7801 37.8399 30.7201L38.9799 35.6401C39.8799 39.5201 37.7999 41.0401 34.3799 39.0001L29.5999 36.1601C28.7399 35.6401 27.2999 35.6401 26.4399 36.1601L21.6599 39.0001C18.2399 41.0201 16.1599 39.5201 17.0599 35.6401L18.1999 30.7201C18.3799 29.7601 17.9999 28.4601 17.3399 27.8001L13.3599 23.8201C11.0199 21.4801 11.7799 19.1201 15.0399 18.5601L20.1399 17.7201C20.9999 17.5801 22.0199 16.8201 22.3999 16.0401L25.2199 10.4001C26.7599 7.36006 29.2399 7.36006 30.7799 10.4201Z" fill="white"/>
<path d="M16 11.5H4C3.18 11.5 2.5 10.82 2.5 10C2.5 9.18 3.18 8.5 4 8.5H16C16.82 8.5 17.5 9.18 17.5 10C17.5 10.82 16.82 11.5 16 11.5Z" fill="white"/>
<path d="M10 39.5H4C3.18 39.5 2.5 38.82 2.5 38C2.5 37.18 3.18 36.5 4 36.5H10C10.82 36.5 11.5 37.18 11.5 38C11.5 38.82 10.82 39.5 10 39.5Z" fill="white"/>
<path d="M6 25.5H4C3.18 25.5 2.5 24.82 2.5 24C2.5 23.18 3.18 22.5 4 22.5H6C6.82 22.5 7.5 23.18 7.5 24C7.5 24.82 6.82 25.5 6 25.5Z" fill="white"/>
</svg>
