<svg width="14" height="14" viewBox="0 0 14 14" fill="none" xmlns="http://www.w3.org/2000/svg">
<path fill-rule="evenodd" clip-rule="evenodd" d="M6.99995 1.26298C8.86795 1.26298 9.08995 1.26998 9.82795 1.30298C10.51 1.33498 10.881 1.44898 11.128 1.54498C11.454 1.67198 11.687 1.82298 11.932 2.06798C12.177 2.31298 12.328 2.54598 12.455 2.87298C12.551 3.11898 12.665 3.48998 12.696 4.17298C12.73 4.90998 12.736 5.13098 12.736 6.99998C12.736 8.86798 12.73 9.08998 12.696 9.82798C12.665 10.51 12.551 10.881 12.456 11.128C12.328 11.454 12.176 11.687 11.932 11.932C11.7061 12.1643 11.431 12.343 11.127 12.455C10.88 12.551 10.51 12.665 9.82695 12.696C9.08995 12.73 8.86895 12.736 6.99995 12.736C5.13095 12.736 4.90995 12.73 4.17195 12.696C3.48995 12.665 3.11995 12.551 2.87195 12.456C2.56817 12.3436 2.29344 12.1645 2.06795 11.932C1.83566 11.7061 1.65694 11.431 1.54495 11.127C1.44895 10.88 1.33495 10.51 1.30395 9.82698C1.26995 9.08998 1.26395 8.86798 1.26395 6.99998C1.26395 5.13098 1.26995 4.90998 1.30395 4.17198C1.33495 3.48998 1.44895 3.11998 1.54395 2.87198C1.67195 2.54598 1.82395 2.31298 2.06795 2.06798C2.31295 1.82298 2.54595 1.67198 2.87295 1.54498C3.11895 1.44898 3.48995 1.33498 4.17295 1.30398C4.90995 1.26998 5.13095 1.26398 6.99995 1.26398M6.99995 0.000976562C5.09995 0.000976562 4.86095 0.00897656 4.11495 0.0429766C3.36995 0.0779766 2.85995 0.196977 2.41595 0.369977C1.94884 0.54557 1.52566 0.820976 1.17595 1.17698C0.820313 1.52678 0.545254 1.94995 0.369953 2.41698C0.196953 2.85998 0.0779531 3.36998 0.0439531 4.11398C0.00995312 4.85998 0.00195312 5.09898 0.00195312 6.99998C0.00195312 8.89998 0.00995312 9.13898 0.0439531 9.88498C0.0779531 10.63 0.196953 11.139 0.369953 11.584C0.547953 12.044 0.787953 12.434 1.17695 12.824C1.56595 13.212 1.95595 13.452 2.41695 13.63C2.86095 13.803 3.36995 13.922 4.11495 13.956C4.86095 13.99 5.09895 13.998 6.99995 13.998C8.89995 13.998 9.13895 13.99 9.88495 13.956C10.63 13.922 11.139 13.803 11.584 13.63C12.0511 13.4544 12.4742 13.179 12.824 12.823C13.1796 12.4732 13.4547 12.05 13.63 11.583C13.803 11.139 13.922 10.63 13.956 9.88498C13.99 9.13898 13.998 8.89998 13.998 6.99998C13.998 5.09998 13.99 4.86098 13.956 4.11498C13.922 3.36998 13.803 2.86098 13.63 2.41598C13.4544 1.94886 13.179 1.52568 12.823 1.17598C12.4731 0.820337 12.05 0.545277 11.583 0.369977C11.14 0.196977 10.63 0.0779766 9.88595 0.0439766C9.13995 0.00997656 8.89995 0.00197656 6.99995 0.00197656" fill="white"/>
<path fill-rule="evenodd" clip-rule="evenodd" d="M6.99998 3.4068C6.04706 3.4068 5.13317 3.78535 4.45935 4.45917C3.78553 5.13299 3.40698 6.04688 3.40698 6.9998C3.40698 7.95273 3.78553 8.86662 4.45935 9.54044C5.13317 10.2143 6.04706 10.5928 6.99998 10.5928C7.95291 10.5928 8.8668 10.2143 9.54062 9.54044C10.2144 8.86662 10.593 7.95273 10.593 6.9998C10.593 6.04688 10.2144 5.13299 9.54062 4.45917C8.8668 3.78535 7.95291 3.4068 6.99998 3.4068ZM6.99998 9.3328C6.38123 9.3328 5.78782 9.08701 5.3503 8.64948C4.91278 8.21196 4.66698 7.61855 4.66698 6.9998C4.66698 6.38105 4.91278 5.78765 5.3503 5.35012C5.78782 4.9126 6.38123 4.6668 6.99998 4.6668C7.61873 4.6668 8.21214 4.9126 8.64966 5.35012C9.08718 5.78765 9.33298 6.38105 9.33298 6.9998C9.33298 7.61855 9.08718 8.21196 8.64966 8.64948C8.21214 9.08701 7.61873 9.3328 6.99998 9.3328ZM11.575 3.2648C11.575 3.48759 11.4865 3.70124 11.329 3.85877C11.1714 4.0163 10.9578 4.1048 10.735 4.1048C10.5122 4.1048 10.2985 4.0163 10.141 3.85877C9.98348 3.70124 9.89498 3.48759 9.89498 3.2648C9.89498 3.04202 9.98348 2.82837 10.141 2.67084C10.2985 2.5133 10.5122 2.4248 10.735 2.4248C10.9578 2.4248 11.1714 2.5133 11.329 2.67084C11.4865 2.82837 11.575 3.04202 11.575 3.2648Z" fill="white"/>
</svg>
