<svg width="14" height="14" viewBox="0 0 14 14" fill="none" xmlns="http://www.w3.org/2000/svg">
<path d="M13.707 3.60787C13.6279 3.31008 13.472 3.03826 13.255 2.81961C13.0379 2.60095 12.7672 2.44311 12.47 2.36187C11.379 2.06787 7 2.06787 7 2.06787C7 2.06787 2.622 2.06787 1.53 2.36187C1.23279 2.44332 0.962098 2.60122 0.74489 2.81983C0.527683 3.03844 0.371536 3.31014 0.292 3.60787C0 4.70687 0 6.99987 0 6.99987C0 6.99987 0 9.29287 0.292 10.3919C0.371321 10.6896 0.527412 10.9613 0.744666 11.1798C0.96192 11.3983 1.23272 11.5559 1.53 11.6369C2.622 11.9319 7 11.9319 7 11.9319C7 11.9319 11.378 11.9319 12.469 11.6369C12.7663 11.5562 13.0372 11.3986 13.2543 11.1801C13.4714 10.9616 13.6272 10.6897 13.706 10.3919C14 9.29287 14 6.99987 14 6.99987C14 6.99987 14 4.70687 13.707 3.60787ZM5.568 9.08187V4.91787L9.228 6.99987L5.568 9.08187Z" fill="white"/>
</svg>
