<svg width="14" height="14" viewBox="0 0 14 14" fill="none" xmlns="http://www.w3.org/2000/svg">
<path fill-rule="evenodd" clip-rule="evenodd" d="M3.08 13.9301H0.07V4.27014H3.08V13.9301ZM1.54 3.08014C0.63 3.08014 0 2.45014 0 1.61014C0 0.770137 0.63 0.140137 1.61 0.140137C2.59 0.140137 3.15 0.770137 3.15 1.61014C3.15 2.45014 2.59 3.08014 1.54 3.08014ZM14 13.9301H10.99V8.61014C10.99 7.35014 10.57 6.51014 9.45 6.51014C8.61 6.51014 8.12 7.07014 7.91 7.63014C7.84 7.84014 7.84 8.12014 7.84 8.40014V13.9301H4.83V7.35014C4.83 6.16014 4.76 5.18014 4.76 4.27014H7.35L7.49 5.60014H7.56C7.98 4.97014 8.89 4.06014 10.5 4.06014C12.46 4.06014 13.93 5.39014 13.93 8.19014V13.9301H14Z" fill="white"/>
</svg>
