<svg width="40" height="40" viewBox="0 0 40 40" fill="none" xmlns="http://www.w3.org/2000/svg">
<path d="M19.9998 21.2502C14.7165 21.2502 10.4165 16.9502 10.4165 11.6668C10.4165 6.3835 14.7165 2.0835 19.9998 2.0835C25.2832 2.0835 29.5832 6.3835 29.5832 11.6668C29.5832 16.9502 25.2832 21.2502 19.9998 21.2502ZM19.9998 4.5835C16.0998 4.5835 12.9165 7.76683 12.9165 11.6668C12.9165 15.5668 16.0998 18.7502 19.9998 18.7502C23.8998 18.7502 27.0832 15.5668 27.0832 11.6668C27.0832 7.76683 23.8998 4.5835 19.9998 4.5835Z" fill="white"/>
<path d="M5.68359 37.9167C5.00026 37.9167 4.43359 37.35 4.43359 36.6667C4.43359 29.55 11.417 23.75 20.0003 23.75C20.6836 23.75 21.2503 24.3167 21.2503 25C21.2503 25.6833 20.6836 26.25 20.0003 26.25C12.8003 26.25 6.93359 30.9167 6.93359 36.6667C6.93359 37.35 6.36693 37.9167 5.68359 37.9167Z" fill="white"/>
<path d="M30.3334 36.9167C26.7 36.9167 23.75 33.9667 23.75 30.3334C23.75 26.7 26.7 23.75 30.3334 23.75C33.9667 23.75 36.9167 26.7 36.9167 30.3334C36.9167 33.9667 33.9667 36.9167 30.3334 36.9167ZM30.3334 26.25C28.0834 26.25 26.25 28.0834 26.25 30.3334C26.25 32.5834 28.0834 34.4167 30.3334 34.4167C32.5834 34.4167 34.4167 32.5834 34.4167 30.3334C34.4167 28.0834 32.5834 26.25 30.3334 26.25Z" fill="white"/>
<path d="M36.6665 37.9165C36.3498 37.9165 36.0331 37.7998 35.7831 37.5498L34.1164 35.8832C33.6331 35.3998 33.6331 34.5997 34.1164 34.1164C34.5997 33.6331 35.3998 33.6331 35.8832 34.1164L37.5498 35.7831C38.0332 36.2664 38.0332 37.0665 37.5498 37.5498C37.2998 37.7998 36.9831 37.9165 36.6665 37.9165Z" fill="white"/>
</svg>
